<?xml version="1.0" encoding="UTF-8" standalone="no"?>

<svg
   version="1.1"
   id="svg2708"
   viewBox="0 0 578.56061 442.32458"
   sodipodi:docname="mufl2.svg"
   inkscape:version="1.2.2 (732a01da63, 2022-12-09, custom)"
   xmlns:inkscape="http://www.inkscape.org/namespaces/inkscape"
   xmlns:sodipodi="http://sodipodi.sourceforge.net/DTD/sodipodi-0.dtd"
   xmlns="http://www.w3.org/2000/svg"
   xmlns:svg="http://www.w3.org/2000/svg">
  <defs
     id="defs2712" />
  <sodipodi:namedview
     id="namedview2710"
     pagecolor="#ffffff"
     bordercolor="#000000"
     borderopacity="0.25"
     inkscape:showpageshadow="2"
     inkscape:pageopacity="0.0"
     inkscape:pagecheckerboard="0"
     inkscape:deskcolor="#d1d1d1"
     showgrid="false"
     inkscape:zoom="1.5862247"
     inkscape:cx="278.64904"
     inkscape:cy="216.2367"
     inkscape:window-width="1920"
     inkscape:window-height="1031"
     inkscape:window-x="0"
     inkscape:window-y="25"
     inkscape:window-maximized="1"
     inkscape:current-layer="layer1" />
  <g
     inkscape:groupmode="layer"
     id="layer1"
     inkscape:label="Layer 1"
     transform="translate(-13.333333,-29.490538)">
    <path
       style="fill:#000000;stroke-width:1.33333"
       d="m 296,469.40033 c -11.62281,-2.47364 -15.87012,-4.01349 -30.31984,-10.99237 -15.44697,-7.46053 -19.89652,-17.55129 -20.75767,-47.07463 -0.53398,-18.3071 -0.63822,-18.85613 -5.41161,-28.50278 -2.67693,-5.40988 -7.73595,-13.50988 -11.24228,-18 -3.50632,-4.49014 -7.75479,-10.42147 -9.44104,-13.18075 -3.40084,-5.56495 -6.95369,-8.02935 -9.92944,-6.88745 -2.28556,0.87705 -4.23145,-1.61955 -4.23145,-5.42902 0,-2.42985 -0.74006,-2.62701 -8.33334,-2.22017 C 191.75,337.35873 188,337.02529 188,336.3722 c 0,-0.65311 1.48007,-3.19357 3.28904,-5.64549 3.45648,-4.685 3.30688,-7.08052 -0.40716,-6.51998 -3.22079,0.4861 -9.54855,-1.38497 -9.54855,-2.82342 0,-0.6779 1.65,-2.21494 3.66667,-3.41564 6.6718,-3.97234 13.67565,-24.39447 11.79824,-34.40188 -1.01132,-5.39086 -5.53569,-9.64094 -22.38953,-21.03218 -6.37523,-4.3089 -12.07523,-8.65438 -12.66667,-9.65664 -0.59145,-1.00224 -3.49656,-3.33577 -6.45579,-5.18564 -7.77085,-4.85768 -19.83465,-17.04293 -26.47363,-26.74014 -8.68083,-12.67966 -10.8228,-20.20598 -10.70598,-37.61786 0.10924,-16.2816 0.87031,-21.04676 4.84463,-30.33333 1.85873,-4.34317 3.49682,-6.33333 5.21292,-6.33333 1.37636,0 2.50248,0.79541 2.50248,1.76758 0,3.47602 6.56074,7.80798 22.82217,15.06915 17.88609,7.98664 23.11544,11.31865 30.92713,19.70605 l 5.08264,5.45722 -0.77417,-4 c -1.20061,-6.2033 -11.27984,-25.24758 -17.07209,-32.257 C 160.63543,139.07768 143.82792,134.55065 122,139.03603 c -12.14353,2.49536 -17.18143,4.7361 -25.509039,11.34588 -9.827218,7.80002 -14.242533,15.09854 -17.560489,29.02748 -2.791975,11.72084 -2.799808,12.09428 -0.459875,21.92394 1.309264,5.5 3.238988,11.56938 4.288275,13.4875 1.049287,1.91812 3.492943,6.41812 5.430347,10 1.937404,3.58188 4.838529,7.70177 6.446945,9.1553 1.608416,1.45355 4.950895,5.35355 7.427736,8.66667 2.47683,3.31313 9.69665,11.42387 16.04403,18.02387 6.34738,6.6 13.67963,15.29296 16.2939,19.31768 2.61426,4.02472 5.26593,7.92472 5.89258,8.66666 8.88603,10.52092 19.85863,29.7805 21.42299,37.60255 1.11388,5.56956 -1.09844,24.70364 -3.31304,28.65419 -3.71711,6.63078 -17.69949,19.14845 -23.22572,20.7927 -7.58574,2.25703 -19.9097,2.04379 -25.1331,-0.43488 -6.17989,-2.93254 -12.9165,-12.83857 -13.748064,-20.21618 -0.636839,-5.65002 -0.504089,-5.9668 2.178851,-5.19966 1.571353,0.44932 3.930213,1.11712 5.241913,1.48403 1.3117,0.36689 5.9617,-0.26321 10.33333,-1.40025 9.1119,-2.36995 16.72893,-8.54355 15.64677,-12.68172 -0.86091,-3.29212 -14.47307,-14.27936 -32.110525,-25.91846 -1.111267,-0.73333 -3.054242,-2.31444 -4.317723,-3.51357 -1.26348,-1.19913 -8.216129,-6.5346 -15.450331,-11.85661 -14.821906,-10.90407 -28.747852,-24.63494 -32.556437,-32.10038 -1.403565,-2.75121 -3.803397,-5.39941 -5.33296,-5.88488 -3.537351,-1.1227 -7.918892,-8.23737 -7.92538,-12.86909 -0.0032,-2.31405 -1.813533,-5.4402 -5.17826,-8.94221 -5.621624,-5.85099 -8.480511,-15.90067 -5.5335,-19.45159 1.128107,-1.35929 0.514363,-3.31035 -2.572487,-8.17781 -4.620618,-7.28596 -5.373954,-15.45058 -2.023425,-21.92979 1.871323,-3.61873 1.819016,-4.34165 -0.666667,-9.214 -1.483521,-2.90793 -2.697312,-6.61847 -2.697312,-8.24561 0,-3.86632 2.87146,-11.99363 5.0498,-14.29283 1.207306,-1.27429 1.469718,-4.04287 0.884634,-9.33333 -0.987628,-8.93038 0.574561,-13.7256 6.17626,-18.95837 3.588293,-3.35196 4.088394,-4.74055 4.322857,-12.00289 0.261315,-8.09408 0.367108,-8.30618 7.342127,-14.719725 3.892345,-3.579021 6.765757,-6.507312 6.38536,-6.507312 -1.27689,0 3.425109,-9.975752 5.727718,-12.151917 1.252324,-1.183553 4.374011,-3.147036 6.93708,-4.363292 3.153222,-1.496301 5.199212,-3.702187 6.327254,-6.821727 C 64.916984,63.274799 73.873948,56.479924 82,55.193131 c 3.666667,-0.580632 7.116667,-0.936618 7.666667,-0.791079 0.55,0.145537 1,-0.606561 1,-1.671331 0,-1.06477 2.703354,-3.795902 6.007454,-6.069184 5.603649,-3.855408 6.723559,-4.115977 16.660899,-3.876466 9.90326,0.238689 10.90114,0.0091 14.17103,-3.26082 5.10469,-5.10469 12.80223,-6.844662 21.58507,-4.879148 6.29639,1.40907 7.40044,1.323336 9.69457,-0.752819 3.71259,-3.359851 15.22619,-3.992803 24.35524,-1.338913 6.87499,1.998613 7.86727,2.005165 11.59675,0.07657 3.71443,-1.920805 4.72284,-1.921721 11.29803,-0.01027 4.69762,1.36564 8.79397,3.719895 11.72662,6.739552 C 221.89403,43.613505 222.91772,44 230.05415,44 c 7.63134,0 7.90617,0.131387 13.94585,6.666667 3.3886,3.666666 6.98541,6.666666 7.99292,6.666666 5.25528,0 13.08367,5.640278 16.47393,11.869318 1.94323,3.570357 3.53315,7.385361 3.53315,8.477786 0,1.156332 1.73448,2.333126 4.1512,2.816471 5.96525,1.193049 14.00759,10.4947 15.90217,18.392233 1.003,4.180999 3.21167,8.122139 6.40542,11.429819 2.681,2.77665 5.49184,6.16453 6.2463,7.52863 1.23946,2.24094 1.74467,1.94207 5.23779,-3.0985 2.12632,-3.06827 5.85903,-6.4114 8.29491,-7.42918 3.51798,-1.46991 4.43041,-2.61863 4.43632,-5.58521 0.0207,-10.392957 9.01797,-24.401367 15.67244,-24.401367 3.3215,0 4.77234,-1.881017 6.72117,-8.713974 1.76325,-6.18235 8.48637,-13.689782 13.10903,-14.638316 1.73612,-0.35624 4.6057,-0.94637 6.37684,-1.311399 1.93357,-0.398504 3.92824,-2.263131 4.99216,-4.666667 C 370.52028,45.80134 371.79545,44 372.37947,44 c 0.58401,0 2.80201,-1.286556 4.92886,-2.859013 3.27706,-2.422831 5.08114,-2.748923 11.82504,-2.137407 7.20478,0.653305 8.22103,0.419107 10.73684,-2.47432 1.52835,-1.75776 2.33279,-3.233959 1.78764,-3.280441 -0.54516,-0.04648 0.50882,-0.690722 2.34215,-1.43164 5.98868,-2.420248 13.07612,-2.627104 18.09937,-0.528255 4.35891,1.821267 5.52231,1.825919 10.77354,0.04308 8.44689,-2.867793 12.41174,-2.506223 21.21609,1.934785 4.41369,2.226314 8.40129,3.461814 9.18789,2.846736 2.40344,-1.87935 12.40926,-2.56725 18.2508,-1.254742 5.69619,1.279849 10.93244,5.622876 12.41638,10.298326 0.68204,2.148904 1.69382,2.458871 6.09798,1.86815 8.78234,-1.177958 16.98934,1.90897 20.93771,7.875376 2.60695,3.93935 4.02141,4.961305 5.99839,4.333837 7.44292,-2.362289 19.50486,4.795655 22.28709,13.225861 1.18495,3.590434 2.44068,4.597879 7.37655,5.91802 3.27166,0.875039 7.83686,3.278242 10.14488,5.340452 3.44892,3.081619 4.24292,4.853899 4.45765,9.949951 0.19952,4.735023 1.10673,7.045934 3.83848,9.777684 4.21984,4.21983 6.76507,12.50891 5.54569,18.06068 -0.68777,3.13145 -0.18097,4.63737 2.44411,7.26245 3.98784,3.98783 5.15087,11.07679 3.12077,19.02174 -1.22244,4.78413 -1.13605,6.0641 0.49675,7.35996 6.51581,5.1712 7.03172,18.40033 0.87381,22.40689 -0.92857,0.60417 -0.84722,3.22831 0.25244,8.14212 1.45526,6.50275 1.33484,8.0198 -1.16744,14.70772 -1.7315,4.62788 -3.77384,7.76933 -5.38306,8.28008 -1.42615,0.45264 -2.93602,2.433 -3.35524,4.40079 -1.31072,6.15229 -4.81138,15.38462 -7.67615,20.24446 -3.42899,5.81699 -15.29799,22.06548 -18.92004,25.90131 -0.74372,0.78761 -4.64372,5.31001 -8.66667,10.04977 -4.02294,4.73976 -11.78572,12.83976 -17.25061,18 -13.86227,13.08948 -15.76553,15.10143 -24.06383,25.43794 -4.03333,5.024 -8.59292,10.4536 -10.13242,12.06578 -6.04704,6.33258 -8.14474,16.66263 -3.96483,19.52479 3.72613,2.55144 23.84612,-1.52845 27.99431,-5.67664 4.33434,-4.33435 4.577,1.97731 0.31734,8.25427 -11.13778,16.41244 -21.56233,23.77612 -33.65918,23.77612 -10.49048,0 -21.59292,-8.22582 -26.80338,-19.85867 -9.72184,-21.70491 -2.66446,-47.37745 20.74795,-75.47467 5.49955,-6.6 10.35988,-12.3 10.80073,-12.66666 C 487.07471,262.3 491.78093,256.6 497.09213,250 c 5.3112,-6.6 11.58824,-14.38788 13.94896,-17.3064 17.83348,-22.04715 24.3698,-41.64497 20.32971,-60.95453 -2.45363,-11.72712 -5.9452,-18.18814 -14.24299,-26.35606 -10.02145,-9.86462 -18.69341,-13.31159 -34.63866,-13.76832 -22.04656,-0.6315 -34.41303,3.50271 -46.61563,15.58399 -7.62172,7.54595 -15.44227,22.61612 -16.77237,32.32035 -0.93104,6.79261 1.07905,7.81717 3.56446,1.81684 3.05832,-7.38343 17.08326,-18.86407 32.71578,-26.78072 8.04024,-4.07176 16.71861,-8.20828 19.28528,-9.19227 C 480.98781,142.93952 488,137.62916 488,135.26548 c 0,-2.37271 1.47209,-2.46349 4.30529,-0.26548 2.85296,2.21335 7.66143,18.32368 8.46872,28.37376 0.72284,8.99848 -2.09334,24.61781 -5.97686,33.14948 -2.87679,6.31995 -8.87634,12.67923 -19.77548,20.9612 -4.22859,3.21319 -7.98834,6.20995 -8.355,6.65948 -0.36667,0.44953 -2.76667,1.88935 -5.33334,3.1996 -7.07749,3.61296 -22.67258,14.37519 -28.66666,19.78296 -2.93334,2.6464 -5.76879,4.82557 -6.301,4.84259 -1.81099,0.0579 -9.68682,9.52866 -13.41498,16.13165 -3.26164,5.77672 -3.55434,7.19179 -2.39402,11.57368 0.78765,2.97456 0.92553,10.29781 0.34112,18.11936 -1.02783,13.75631 -0.12467,17.34812 5.53812,22.02399 2.94602,2.43258 1.61512,4.18225 -3.18127,4.18225 -4.88395,0 -4.97841,1.6416 -0.30599,5.31693 4.30964,3.38996 2.9587,4.78184 -5.94865,6.12888 -4.12609,0.62399 -5.66667,1.4775 -5.66667,3.13944 0,1.25535 -4.04974,5.53723 -8.99942,9.51527 -14.29144,11.48599 -19.91759,17.54495 -21.61639,23.27933 -4.21284,14.22052 -5.0746,21.26486 -3.74593,30.62015 0.72905,5.13333 0.99202,15.04811 0.5844,22.03284 -0.60652,10.39275 -1.3961,13.90449 -4.34684,19.33333 -8.11556,14.93118 -20.72386,24.16256 -37.1207,27.17859 -10.60093,1.94992 -16.6259,1.72076 -30.08845,-1.14443 z"
       id="path3189" />
    <path
       id="path3216"
       style="fill:#d38d5f;stroke-width:1.33333"
       d="M 440.45052 36.000304 C 435.78324 36.000304 427.08726 39.932272 429.02083 41.168272 C 429.73688 41.625996 432.20086 45.732812 434.49544 50.295226 C 438.5684 58.393641 440.00209 66.666319 437.33333 66.666319 C 436.6 66.666319 435.99992 65.316317 435.99935 63.666319 C 435.99835 59.925561 429.29656 45.948189 425.06966 40.869444 C 420.53094 35.416047 411.17331 34.401504 406.44857 38.851866 C 399.85071 45.066564 399.83048 46.388365 406.23568 52.978819 C 412.9349 59.871825 419.16928 69.843057 418.32747 72.31671 C 418.01235 73.242699 416.51132 71.599646 414.99154 68.666319 C 411.87846 62.657863 400.05484 50.146591 393.99935 46.451476 C 388.41382 43.043135 385.2582 43.377727 378.78255 48.068663 C 371.74167 53.169043 371.87944 56.594031 379.29232 60.732726 C 387.55518 65.345988 394.30017 71.56674 398.13802 78.115538 C 400.07354 81.418236 401.36909 84.407908 401.01693 84.760069 C 400.66475 85.112233 398.09298 82.615198 395.30208 79.209288 C 387.18733 69.306293 384.326 66.869169 375.68294 62.506163 C 369.50689 59.388505 366.42808 58.572641 362.96224 59.135069 C 356.69714 60.151755 350.05961 67.23012 349.55599 73.431944 C 349.19017 77.936737 349.4582 78.281097 354.44661 79.775694 C 365.41902 83.063107 374.42927 87.978295 381.7513 94.670226 L 389.32161 101.59015 L 396.02083 95.568663 C 399.7048 92.256468 405.25626 88.359435 408.35872 86.908507 C 411.46118 85.457577 418.06336 82.372077 423.02865 80.053038 C 445.3193 69.642189 455.39446 68.035906 477.92513 71.295226 C 501.1775 74.658946 514.06282 79.866282 522.08724 89.142882 C 526.3311 94.04898 523.76663 94.317195 517.70833 89.601866 C 502.76701 77.97261 470.46394 71.585204 449.99935 76.213194 C 435.69036 79.449117 430.02058 81.473431 421.69857 86.310851 C 416.94559 89.073663 411.6799 92.087165 409.9974 93.008116 C 401.82677 97.48041 381.33333 119.99122 381.33333 124.49444 C 381.33333 125.20664 380.48994 126.73711 379.46029 127.89483 C 378.43062 129.05258 375.05419 135.10096 371.95638 141.33429 C 368.85855 147.56761 364.90065 154.57606 363.16146 156.91046 C 361.42227 159.24486 359.99935 162.6662 359.99935 164.51202 C 359.99935 166.35785 359.03231 168.40838 357.84896 169.07062 C 356.12546 170.03514 355.99151 170.82855 357.18099 173.05108 C 359.11852 176.6714 359.05636 177.33429 356.77083 177.33429 C 355.72771 177.33429 354.178 175.22397 353.32747 172.64679 C 351.99526 168.61018 352.17867 167.08628 354.65169 161.64679 C 356.23058 158.17397 358.04206 154.43429 358.67708 153.33429 C 359.31208 152.23429 363.91894 143.32379 368.91536 133.53546 C 373.9118 123.74714 380.29046 113.10967 383.08919 109.89679 L 388.17708 104.05694 L 385.08919 100.99444 C 376.7878 92.767141 360.9371 83.763042 351.99935 82.195616 C 349.42748 81.744586 344.66756 82.173343 341.39583 83.150694 C 336.33357 84.662934 334.9268 85.908844 331.8431 91.617491 C 329.85414 95.299514 328.10732 99.441909 327.96029 100.82257 C 327.27864 107.22345 327.70853 107.57578 338.33333 109.30304 C 349.70293 111.15138 360.31717 115.38246 365.08724 119.9671 C 369.59306 124.29782 367.67397 124.78068 361.80599 120.79327 C 355.23665 116.32929 346.78115 113.57381 335.26302 112.14288 C 324.89025 110.85423 319.9739 112.1589 315.10677 117.49444 C 311.60694 121.33109 307.45762 131.33011 308.37435 133.71905 C 308.73847 134.66793 308.25702 136.51153 307.30404 137.81476 C 305.68262 140.03214 305.5077 139.98564 304.57747 137.0921 C 304.03077 135.39148 303.43448 132.69641 303.25325 131.10382 C 302.37545 123.38944 300.77661 120.01062 295.60872 114.94366 L 289.99935 109.44366 L 280.65365 109.85382 C 270.3342 110.30624 263.97081 111.96185 254.0931 116.76788 C 246.89621 120.26956 244.98943 120.06242 248.51888 116.16241 C 252.46332 111.80387 265.72054 107.85927 277.34896 107.58429 C 287.49117 107.34445 287.97502 107.1938 287.98763 104.2464 C 287.99963 101.34114 285.91021 96.145663 284.13411 94.666319 C 283.69389 94.299654 282.67886 92.800953 281.87825 91.334288 C 279.83116 87.58417 270.52063 84.852773 263.41536 85.918272 C 257.36743 86.825214 237.05897 95.991757 232.99935 99.646788 C 231.10687 101.35065 230.67284 101.39273 230.69857 99.873351 C 230.78217 94.937635 261.2971 79.506271 265.65169 82.197569 C 267.75464 83.497255 265.55862 75.814206 263.02279 73.000304 C 261.86627 71.716973 261.39475 70.666319 261.97396 70.666319 C 265.14231 70.666319 254.86484 64.765759 250.19661 63.904601 C 243.27623 62.627975 238.73986 65.090073 226.99935 76.494444 C 222.41602 80.946548 218.66732 83.958314 218.66732 83.187804 C 218.66732 80.348185 233.2622 65.770868 238.44466 63.433897 C 244.58904 60.663165 244.54536 58.791588 238.20247 53.000304 C 231.71434 47.076395 220.95564 48.047506 213.89779 55.195616 C 209.93597 59.208091 200.55198 71.963102 198.10091 76.666319 C 196.47118 79.793521 196.02195 80.085105 196.03841 78.000304 C 196.08031 72.70895 201.41995 63.699726 208.9681 56.189757 C 218.10732 47.096755 217.91325 44.583569 207.72982 40.137022 C 199.23481 36.427722 198.38383 36.537192 192.7181 42.039366 C 187.35054 47.251974 183.10254 55.983819 181.81771 64.451476 C 180.4809 73.261762 178.43212 75.114417 179.36849 66.666319 C 180.43657 57.029919 183.45224 47.756849 186.6263 44.349913 C 189.10396 41.690455 189.10772 41.54269 186.72786 39.388976 C 181.88084 35.00244 161.33333 35.550819 161.33333 40.06671 C 161.33333 40.658692 160.28268 42.191924 158.99935 43.474913 C 157.07855 45.395201 156.66732 48.241156 156.66732 59.568663 C 156.66732 67.136826 156.26042 73.32917 155.76302 73.330382 C 155.26561 73.331582 154.11618 70.020908 153.21029 65.97296 C 151.98889 60.51517 151.92676 56.638502 152.96615 50.97296 C 153.73702 46.770924 154.09585 42.87798 153.76497 42.322569 C 153.43408 41.76716 150.79929 40.17188 147.9095 38.775694 C 145.01975 37.379511 142.91573 36.657664 143.23372 37.172179 C 143.55171 37.686692 140.88477 39.1479 137.30794 40.418272 C 133.2212 41.869759 129.71629 44.257298 127.87435 46.844054 C 125.14642 50.67507 125.05856 51.434433 126.61849 57.812804 C 129.50619 69.620252 130.38655 74.921138 129.26888 73.773741 C 127.24152 71.692452 122.66732 58.573753 122.66732 54.842101 C 122.66732 49.742156 118.06 47.421713 109.79036 48.353819 C 106.28703 48.748696 103.19905 49.733245 102.92904 50.543272 C 102.65903 51.3533 101.9375 51.70665 101.32552 51.328429 C 99.759412 50.360521 94.667317 57.170891 94.667317 60.232726 C 94.667317 63.330316 99.147683 72.45715 103.55404 78.334288 C 105.34091 80.717618 106.22435 82.666319 105.51888 82.666319 C 103.49535 82.666319 97.289375 74.666063 94.17513 68.043272 C 92.612368 64.719884 90.734954 61.573327 90.003255 61.051085 C 88.362255 59.879839 80.903193 60.74997 77.70052 62.486632 C 73.482534 64.77385 68.241131 71.246912 67.813802 74.695616 C 67.301232 78.832219 74.384713 89.137498 80.034505 92.474913 C 84.145228 94.903177 85.142597 97.803129 82.440755 99.47296 C 81.391885 100.1212 81.159296 99.710898 81.73177 98.219054 C 82.252614 96.861758 81.920389 96.000304 80.876302 96.000304 C 78.941907 96.000304 76.229477 93.611032 68.895833 85.445616 C 64.989211 81.095911 63.112898 79.937013 60.895833 80.506163 C 56.132644 81.728936 51.062907 87.469518 50.069661 92.763976 C 48.985826 98.541313 50.803805 100.98842 59.333333 105.23663 C 62.266661 106.6976 63.706662 107.91835 62.532552 107.94757 C 61.358443 107.97677 57.758435 106.6339 54.532552 104.96515 C 48.639177 101.91652 42.667317 101.58946 42.667317 104.31476 C 42.667317 105.11931 42.287587 105.39793 41.823567 104.9339 C 40.865637 103.97597 36.917986 108.7306 35.532552 112.51202 C 35.026298 113.8938 34.979329 116.97684 35.427083 119.36358 C 36.073725 122.81049 37.347476 124.20237 41.620442 126.12921 C 47.480529 128.77175 46.312894 130.40137 40.108724 128.23858 C 36.908426 127.12297 35.498346 127.42789 31.583333 130.08819 C 25.285601 134.36762 23.036269 141.04086 25.438802 148.32062 L 27.194661 153.64288 L 33.930989 152.88116 C 40.252971 152.16745 40.461962 152.23808 37.333333 154.01398 C 35.500004 155.0546 32.093124 155.92745 29.76302 155.95343 C 22.887987 156.03013 19.546829 161.41937 20.403645 171.04913 C 20.781265 175.2932 21.812317 179.63792 22.696614 180.70343 C 24.507089 182.88492 29.432609 182.14191 34.374349 178.94171 C 39.328644 175.73339 39.13176 177.99541 34.124349 181.81476 C 31.586661 183.75034 28.367934 185.33429 26.970052 185.33429 C 21.605421 185.33429 19.434752 198.37543 23.620442 205.46124 C 26.433388 210.22318 27.991341 210.29069 33.23177 205.88116 C 35.488032 203.98263 37.333333 203.02868 37.333333 203.76202 C 37.333333 204.49535 35.544058 206.60121 33.35677 208.44171 C 28.470432 212.55329 25.665994 221.66431 27.548177 227.31085 C 28.256006 229.43434 30.467589 232.38998 32.462239 233.87921 C 35.562389 236.19381 36.488276 236.33687 38.841145 234.86749 C 42.353806 232.67379 43.652092 233.871 40.82552 236.69757 C 37.739542 239.78356 38.067913 248.21244 41.440755 252.5003 C 42.966139 254.43951 44.842883 255.63619 45.61263 255.16046 C 46.394011 254.67754 46.75238 255.0772 46.423177 256.06476 C 46.098873 257.03768 46.771487 258.82441 47.917317 260.03546 C 49.063148 261.24651 54.20001 267.03696 59.333333 272.90265 C 68.531223 283.41278 80.492792 293.47237 91.554036 300.0003 C 96.584759 302.96925 123.92985 322.17161 127.33333 325.1253 C 129.24533 326.78462 133.33384 317.41726 132.47982 313.33429 C 130.0662 301.79514 119.01376 284.99581 98.391927 261.52374 C 89.742891 251.6793 82.667317 242.80943 82.667317 241.8128 C 82.667317 238.99492 83.646364 239.62266 87.036458 244.61163 C 88.759723 247.14764 93.29827 252.58293 97.122395 256.69171 C 109.08446 269.54419 131.71131 296.90767 133.9388 301.21515 C 135.11024 303.48048 136.63767 305.33429 137.33333 305.33429 C 140.02831 305.33429 143.1181 314.15871 143.16927 322.0003 C 143.22917 331.16684 140.18264 338.17211 132.3763 346.8128 C 125.60426 354.30865 120.8402 356.45819 110.95247 356.48077 C 104.33888 356.49587 102.72345 356.8925 103.28646 358.35968 C 103.67882 359.38216 104.0004 360.61966 104.0013 361.10968 C 104.0043 362.67747 109.89841 368.86119 112.91146 370.45733 C 117.2108 372.73493 119.40007 372.49032 117.30599 369.9671 C 114.58695 366.69086 116.46681 366.48918 122.50911 369.40851 C 126.209 371.19608 129.15302 371.79521 131.07357 371.14874 C 132.68321 370.60693 134.71339 370.03393 135.58529 369.87726 C 136.4572 369.72058 139.34353 367.93614 141.99935 365.91046 L 146.82747 362.22687 L 142.41341 360.26398 L 137.99935 358.29913 L 142.65169 357.25226 C 145.49576 356.61234 147.62686 356.72837 148.13411 357.54913 C 149.50264 359.76346 154.29746 352.43508 155.91927 345.65069 C 157.56844 338.75183 157.0874 332.4981 154.94466 332.95733 C 154.19866 333.11723 152.85764 332.36788 151.96419 331.29132 C 150.61943 329.67098 150.84598 329.33429 153.2806 329.33429 C 155.11314 329.33429 155.96125 328.70481 155.5306 327.66632 C 155.15047 326.74965 154.088 323.59965 153.16927 320.66632 C 152.25054 317.73298 149.3799 312.03363 146.79036 308.0003 C 144.20083 303.96699 141.46437 299.70714 140.70833 298.53351 C 139.95229 297.3599 136.48268 292.64342 132.99935 288.05304 C 129.51602 283.46265 126.66732 279.17249 126.66732 278.51983 C 126.66732 277.86719 125.76732 277.33429 124.66732 277.33429 C 123.56732 277.33429 122.66732 276.57862 122.66732 275.65655 C 122.66732 273.89109 110.46289 259.12516 104.07747 253.16437 C 97.168985 246.71524 76.14488 217.60044 75.114583 213.05499 C 72.110231 199.80042 71.969507 197.26436 73.489583 184.0003 C 75.301563 168.18914 77.906945 160.90972 84.272786 153.8714 C 89.864069 147.68947 103.08607 139.03289 109.99935 137.0296 C 112.93268 136.17958 116.53268 134.74862 117.99935 133.84796 C 120.85032 132.09721 144.33169 131.06072 151.63607 132.36358 C 157.45013 133.40063 171.57305 142.27982 175.36263 147.2796 C 179.94981 153.33168 191.99935 174.6113 191.99935 176.66046 C 191.99935 177.64183 193.16125 181.15276 194.57943 184.46124 C 195.99761 187.76973 197.11583 192.46895 197.06575 194.9046 C 197.01565 197.34025 197.28342 208.4441 197.6595 219.57843 C 198.24712 236.97448 198.76544 240.69316 201.3431 246.01788 C 202.99292 249.42596 205.0146 252.41074 205.83724 252.65069 C 206.65988 252.89062 217.45987 255.00344 229.83724 257.34601 C 248.38332 260.85607 264.14445 265.05681 259.61458 265.28155 C 259.03602 265.31025 259.82418 266.68429 261.36654 268.33429 C 270.25466 277.84275 278.65596 305.79585 278.60872 325.70733 C 278.59672 331.00153 278.61424 338.91345 278.64974 343.28937 C 278.77134 358.53449 274.63458 346.58357 272.77669 326.32062 C 272.38943 322.09701 270.80752 313.25135 269.26107 306.66437 C 266.71468 295.81817 265.94225 294.25501 261.06966 290.08429 C 254.09317 284.11266 251.15261 283.80774 244.6888 288.39288 C 240.00926 291.71234 238.35056 292.1238 230.74154 291.84796 C 222.73301 291.55763 221.79074 291.19172 217.7845 286.81866 C 215.26875 284.07258 212.84186 279.5087 211.97396 275.89093 C 210.90703 271.44345 209.56604 269.25933 207.25716 268.20733 C 203.15542 266.33846 202.86043 267.46793 202.08529 287.97101 C 201.76101 296.54861 200.9155 303.47161 200.16146 303.72296 C 199.4215 303.96961 199.14466 305.02808 199.54622 306.07452 C 199.94778 307.12096 199.31769 308.34553 198.14583 308.79523 C 196.97395 309.24491 196.36274 310.17681 196.78841 310.86554 C 197.21408 311.55429 196.61177 313.57073 195.44857 315.34601 C 194.28536 317.12129 193.33333 318.90931 193.33333 319.32062 C 193.33333 320.40866 201.51899 316.0041 203.87435 313.64874 C 206.78217 310.7409 207.29917 313.79425 204.597 317.91827 C 203.36647 319.79633 201.91188 321.33429 201.36458 321.33429 C 200.81728 321.33429 200.66915 322.89757 201.0345 324.8089 C 201.43845 326.92202 200.989 328.72223 199.88802 329.40265 C 198.8922 330.01812 198.51262 330.95695 199.04427 331.48858 C 200.25662 332.70093 206.2174 327.29403 209.50521 322.0003 C 212.49916 317.17973 212.83925 319.84031 209.94466 325.4378 C 208.8147 327.62292 208.23214 329.96522 208.64974 330.64093 C 209.06736 331.31664 209.4894 333.99911 209.58724 336.60187 C 209.68514 339.2046 210.11896 341.33118 210.55013 341.32843 C 211.51173 341.32143 215.99935 330.60759 215.99935 328.31866 C 215.99935 327.4097 216.62732 326.66632 217.39388 326.66632 C 218.88312 326.66632 217.84937 334.97937 215.88607 338.79523 C 215.23245 340.0656 215.41198 341.54576 216.32943 342.46319 C 218.65999 344.79376 219.6239 344.3423 220.59505 340.47296 C 221.22746 337.95323 221.89078 337.35853 222.91732 338.38507 C 223.74825 339.216 223.90978 340.84299 223.30013 342.24444 C 221.60978 346.13025 222.50617 348.14882 230.10677 357.56866 C 234.05759 362.46507 240.06603 371.73442 243.45833 378.16632 C 249.01478 388.70146 249.73874 391.12415 250.76497 402.59796 C 251.39149 409.60292 251.92629 419.7176 251.95247 425.07648 C 251.99117 432.99759 252.64493 435.99002 255.44857 441.07648 C 260.01305 449.35746 260.4875 449.74479 271.33333 454.0589 C 292.99448 462.67496 318.04814 464.59723 333.27669 458.81085 C 342.1379 455.44385 359.843 440.94783 361.19466 435.95343 C 363.18252 428.60833 363.95561 416.72343 362.73177 412.31671 C 361.03024 406.18989 360.95791 385.01404 362.61654 378.66632 C 366.82164 362.57304 367.28297 361.65688 373.99935 356.11554 C 377.66599 353.09036 380.68117 349.57836 380.69857 348.3089 C 380.71907 346.81501 381.59067 346.15014 383.16927 346.42413 C 384.51071 346.65694 386.53687 346.49033 387.67122 346.05499 C 389.40577 345.38939 389.24024 344.73924 386.63411 341.96515 C 384.14777 339.31854 383.96073 338.66632 385.6888 338.66632 C 386.87335 338.66632 388.24491 339.31832 388.73763 340.11554 C 389.37043 341.13945 390.0506 341.15026 391.05208 340.14874 C 392.05357 339.14724 393.08544 339.21066 394.56771 340.36554 C 395.72181 341.26477 394.71666 339.72895 392.33333 336.95343 C 389.95002 334.17792 388.01915 330.87726 388.04232 329.61944 C 388.07512 327.83667 388.81065 328.15823 391.3763 331.07452 C 393.64005 333.64766 394.66732 334.16733 394.66732 332.74054 C 394.66732 331.59965 395.5484 330.66632 396.6263 330.66632 C 398.10627 330.66632 397.77916 329.47932 395.29232 325.81476 C 393.4811 323.14576 391.99935 320.44576 391.99935 319.81476 C 391.99935 316.52266 396.87991 320.78921 400.097 326.89483 C 401.99169 330.4907 404.081 332.10704 405.61263 331.16046 C 406.20325 330.79542 405.78271 329.59226 404.67708 328.48663 C 403.57147 327.38101 402.66732 325.31889 402.66732 323.9046 C 402.66732 319.76196 402.59357 319.5284 399.90365 315.17608 C 398.49048 312.88954 397.33333 310.63952 397.33333 310.17608 C 397.33333 308.34483 401.28079 309.47022 402.5599 311.66632 C 403.6372 313.51596 403.93888 313.5857 404.01302 312.0003 C 404.06452 310.9003 404.36862 306.69965 404.6888 302.66632 C 405.00898 298.63298 404.90761 287.68233 404.46419 278.33233 C 403.84179 265.20889 403.24127 261.33233 401.82943 261.33233 C 400.52975 261.33233 399.99935 263.2144 399.99935 267.83624 C 399.99935 276.08648 397.23701 282.72257 391.94661 287.17413 C 386.74083 291.55453 382.89077 292.53664 375.35482 291.40655 C 370.59019 290.69205 368.47838 289.42461 364.70638 285.01788 C 362.11827 281.99431 359.99935 278.68621 359.99935 277.66827 C 359.99935 276.28582 359.04665 276.4979 356.23177 278.50226 C 351.90769 281.58125 347.25676 292.25641 342.79818 309.33429 C 335.09132 338.85406 335.23666 338.43691 334.2806 333.69757 C 333.80325 331.33129 333.98023 326.23063 334.67318 322.36358 C 335.36614 318.49654 336.1842 312.63427 336.49154 309.33429 C 336.7989 306.03429 337.69841 301.68298 338.49154 299.66632 C 339.28468 297.64965 339.67959 296.0003 339.36849 296.0003 C 339.05739 296.0003 339.69078 293.87269 340.77669 291.27374 C 341.8626 288.67479 342.39746 285.97479 341.96419 285.27374 C 341.53091 284.57269 341.81063 284.0003 342.58724 284.0003 C 343.36386 284.0003 343.90292 283.5503 343.7845 283.0003 C 343.6661 282.4503 344.36316 280.2003 345.33333 278.0003 C 346.30351 275.80032 346.97726 273.48231 346.83138 272.84991 C 346.68549 272.21751 347.63972 270.82425 348.95052 269.75226 C 350.43346 268.53953 350.57777 268.13069 349.33333 268.67023 C 347.51069 269.46044 349.08278 267.95334 356.66732 261.63702 C 358.13398 260.41559 359.93398 259.27241 360.66732 259.09796 C 366.84796 257.62766 374.35411 255.6257 375.99935 255.00812 C 377.09935 254.59522 379.44651 254.01577 381.21419 253.72101 C 382.98189 253.42624 385.66492 252.31726 387.17708 251.25812 C 388.68923 250.19896 390.94473 249.33429 392.1888 249.33429 C 396.00166 249.33429 402.49565 244.862 403.29232 241.6878 C 403.70708 240.03531 404.70512 238.82908 405.50911 239.00812 C 407.25231 239.3963 411.75956 227.11011 412.972 218.66632 C 413.44586 215.36632 413.73455 207.29763 413.61458 200.73663 C 413.44753 191.60057 412.92081 188.54309 411.36458 187.67218 C 410.24699 187.04674 409.35422 185.21347 409.38021 183.59991 C 409.42611 180.75553 409.48592 180.76851 411.33333 184.0003 L 413.23958 187.33429 L 413.39974 183.33429 C 413.76852 174.21882 414.52269 170.99481 417.8431 164.34015 C 419.7623 160.49375 421.33333 156.39355 421.33333 155.22882 C 421.33333 154.06408 423.28398 151.16392 425.66732 148.78351 C 428.05063 146.40307 430.65444 143.30326 431.45443 141.89483 C 432.25442 140.48641 434.82754 138.40783 437.17318 137.27569 C 439.51882 136.14357 441.06939 134.84768 440.61849 134.39679 C 440.1676 133.94589 441.19447 133.18509 442.89974 132.70538 C 444.60501 132.22566 447.20065 131.33889 448.66732 130.73468 C 454.7978 128.20915 470.80053 126.04297 482.00325 126.22296 C 502.34638 126.54981 515.81559 132.62757 527.34115 146.67804 C 537.46147 159.01542 540.46459 174.43589 536.75521 195.03741 C 535.162 203.88594 533.27383 209.56723 530.25521 214.59796 C 527.91529 218.49759 525.09935 223.35694 523.99935 225.39679 C 522.89935 227.43663 520.19441 231.10716 517.98763 233.55304 C 515.78084 235.99894 508.13911 245.31352 501.00716 254.25226 C 493.87519 263.191 486.68207 271.96568 485.02083 273.75226 C 476.63344 282.77246 473.5236 286.86332 467.67513 296.56866 C 457.90342 312.7845 453.16404 331.61336 458.15169 334.4046 C 459.89191 335.37848 460.01418 336.1494 458.78841 338.43976 C 456.09237 343.47734 464.09343 357.91169 471.78841 361.89093 L 475.4388 363.77765 L 475.00325 358.88898 L 474.56771 354.0003 L 476.6595 357.66632 C 477.80995 359.68298 479.39653 361.33429 480.1849 361.33429 C 480.97324 361.33429 481.27303 362.23429 480.85091 363.33429 C 480.3871 364.54299 480.84645 365.33429 482.00911 365.33429 C 483.52835 365.33429 483.65803 364.60776 482.62435 361.88898 C 480.7061 356.8436 482.24769 355.70371 485.96419 359.42023 C 490.06567 363.52169 494.17429 363.9782 491.72786 360.06085 C 489.80315 356.97886 490.72259 355.59303 493.88607 356.80694 C 495.13317 357.2855 495.84932 358.46979 495.47786 359.4378 C 495.0495 360.55408 495.5066 360.92721 496.72591 360.45929 C 498.00682 359.96777 498.37919 358.65581 497.84505 356.52765 C 497.04745 353.34977 499.04114 352.0351 500.66732 354.66632 C 502.03956 356.88665 503.68271 356.19046 506.53841 352.17999 L 509.25716 348.36163 L 500.29622 348.94952 C 488.81642 349.70272 477.54274 346.03837 472.347 339.86358 C 470.37734 337.52276 468.52226 334.64421 468.22591 333.46905 C 467.10101 329.00824 467.71841 316.50366 469.25325 312.66632 C 470.13319 310.46632 470.66196 308.56596 470.42708 308.44171 C 470.19218 308.31744 471.28172 306.81679 472.84896 305.10773 C 474.4162 303.39865 477.00916 299.39102 478.61068 296.20148 C 480.2122 293.0119 483.73816 287.91125 486.44466 284.86749 C 489.15117 281.82372 493.41473 276.33298 495.91927 272.66632 C 498.4238 268.99965 502.91661 263.3003 505.90365 260.0003 C 508.89068 256.70032 513.41355 251.45094 515.95443 248.33429 C 518.49529 245.21763 521.03607 242.66632 521.60091 242.66632 C 523.48391 242.66632 517.60469 250.97803 509.08724 260.35773 C 490.57135 280.74804 477.33493 304.89665 477.33333 318.29132 C 477.33281 322.7435 477.75028 323.75621 479.33333 323.14874 C 481.71184 322.23602 481.94594 325.21453 480.02279 331.92023 C 479.302 334.43347 478.95843 336.73674 479.25911 337.03741 C 479.55977 337.33808 480.39405 335.45434 481.11263 332.85187 C 481.83121 330.24937 485.32478 324.45775 488.8763 319.98077 C 492.42784 315.50381 496.92108 309.77371 498.86068 307.24835 C 500.80024 304.72299 510.09963 294.9676 519.52669 285.57062 C 536.98161 268.17135 543.33236 261.33429 542.03646 261.33429 C 541.33967 261.33429 546.15164 255.47922 550.99935 250.42999 C 552.28268 249.09331 553.33333 247.39965 553.33333 246.66632 C 553.33333 245.93298 553.94561 245.33429 554.69466 245.33429 C 555.44372 245.33429 556.78921 243.68298 557.6849 241.66632 C 558.58056 239.64965 560.34744 236.85953 561.61068 235.46515 C 562.87391 234.07075 563.61584 232.45641 563.25911 231.87921 C 562.90237 231.30199 563.53408 230.31396 564.66341 229.68194 C 565.79274 229.04993 566.95715 227.28357 567.2513 225.75616 C 567.54545 224.22876 568.99019 220.62022 570.46029 217.73858 C 572.24029 214.24948 572.7268 211.85854 571.91927 210.58233 C 569.9138 207.41295 570.5182 206.09789 574.94075 204.0003 C 577.26001 202.9003 579.79788 200.80096 580.57943 199.33429 C 581.36096 197.86763 582.43515 196.33993 582.96615 195.94171 C 584.69329 194.6465 583.20479 185.2995 580.9056 183.0003 C 579.48983 181.58456 578.66732 181.3575 578.66732 182.38116 C 578.66732 183.27164 577.46602 184.0003 575.99935 184.0003 C 572.38663 184.0003 572.61562 181.81719 576.33333 180.8128 C 577.98333 180.36704 580.95493 177.30974 582.93685 174.01983 C 586.29023 168.45339 586.41955 167.69057 584.81185 163.01983 C 582.85492 157.33444 578.12264 154.15024 574.50521 156.08624 C 573.22365 156.77211 571.14179 157.33429 569.87825 157.33429 C 568.61471 157.33429 570.17247 155.96396 573.33919 154.28937 C 577.73551 151.96455 579.53089 149.99352 580.9349 145.95538 C 583.18619 139.48036 582.46005 136.15146 577.68099 131.04718 L 573.99935 127.11554 L 569.99935 129.55108 C 567.79935 130.89022 565.09935 131.97717 563.99935 131.9671 C 562.89935 131.957 564.78012 130.20427 568.17708 128.07062 C 573.3154 124.84322 574.44703 123.38964 574.9095 119.42804 C 575.21526 116.80898 574.94902 114.66632 574.31966 114.66632 C 573.6903 114.66632 573.4906 114.15833 573.87435 113.53741 C 574.6209 112.32947 567.08986 104.0003 565.2513 104.0003 C 564.6469 104.0003 562.01808 105.26003 559.4095 106.79913 C 553.33008 110.38609 553.37825 109.21754 559.54232 103.56866 C 563.21461 100.20325 564.45353 97.976387 564.56575 94.549132 C 564.74451 89.08935 560.22486 83.843258 554.89779 83.328429 C 552.93748 83.138978 550.17116 82.507208 548.7513 81.922179 C 546.90277 81.160516 545.767 81.534651 544.7513 83.240538 C 541.57244 88.579553 538.38394 91.982375 537.22786 91.267882 C 536.55339 90.851041 537.71839 88.295002 539.81771 85.588194 C 544.61469 79.403062 544.65032 74.188445 539.92904 69.467101 C 534.55217 64.090363 519.99935 63.990753 519.99935 69.330382 C 519.99935 72.890307 518.55842 76.090014 517.30404 75.314757 C 516.70825 74.946541 516.74348 72.700136 517.38216 70.322569 C 519.14169 63.772563 518.40948 61.060925 513.65365 56.498351 C 508.50957 51.563319 502.53918 50.057001 496.60872 52.201476 C 492.58042 53.658131 492.35361 54.079365 492.9974 58.87921 C 493.39325 61.830465 493.12457 64.000304 492.36458 64.000304 C 491.63916 64.000304 490.68079 60.500253 490.23372 56.22296 C 489.78666 51.945665 489.05422 47.49253 488.60677 46.326476 C 487.41321 43.216065 479.72978 40.000304 473.49154 40.000304 C 466.53794 40.000304 456.84015 43.743491 458.40169 45.824522 C 460.25193 48.290331 462.85606 58.616169 461.98372 60.027647 C 460.81063 61.925731 459.11068 61.626335 459.11068 59.521788 C 459.11068 58.525539 458.33197 54.04184 457.38021 49.556944 C 455.75737 41.909826 455.30391 41.234392 450.07161 38.701476 C 447.00296 37.215966 442.67298 36.000304 440.45052 36.000304 z M 151.07552 80.088194 C 153.96529 80.095185 157.39237 80.188316 161.74935 80.332335 C 179.71231 80.926096 181.27236 81.202399 192.66732 85.810851 C 207.70818 91.893821 212.06434 94.591858 223.75325 105.06476 C 235.63206 115.70779 248.11497 134.24429 257.61068 155.33429 C 262.89685 167.07487 265.416 171.28463 267.07357 171.14874 C 268.31597 171.04687 269.33333 171.79624 269.33333 172.81476 C 269.33333 174.933 264.57611 175.34515 263.33333 173.33429 C 262.88011 172.60096 261.49526 172.03216 260.25521 172.07062 C 258.43162 172.12712 258.57291 172.54013 260.99935 174.23273 C 264.07958 176.38138 264.97811 178.66632 262.74154 178.66632 C 262.0491 178.66632 259.79908 177.18546 257.74154 175.3753 C 255.68398 173.56516 254.75065 172.0645 255.66732 172.04132 C 256.58398 172.01812 257.33333 171.36327 257.33333 170.58624 C 257.33333 168.21382 246.48538 146.26521 243.14193 141.87335 C 241.4144 139.60415 239.99935 137.25989 239.99935 136.66241 C 239.99935 134.81847 230.08751 122.39532 222.18294 114.33233 C 218.04864 110.11518 214.66732 106.19907 214.66732 105.62921 C 214.66732 105.05936 213.61518 103.70886 212.32943 102.62921 C 196.54589 89.375837 186.16693 85.434344 164.21029 84.357726 C 138.91707 83.117503 122.947 87.159835 87.999349 103.64679 C 85.432686 104.85765 81.533329 107.12559 79.333333 108.68585 C 73.192203 113.0412 71.999349 113.60299 71.999349 112.14288 C 71.999349 107.58557 110.27387 88.258973 129.08333 83.318663 C 138.58411 80.82328 142.40624 80.067222 151.07552 80.088194 z M 454.24349 117.84601 C 455.32861 117.88454 456.20177 118.05958 456.79036 118.38898 C 458.52175 119.3579 457.5533 119.85596 452.51497 120.58429 C 432.88557 123.42188 416.04697 139.31162 407.21615 163.33233 C 406.67696 164.799 405.28345 168.66085 404.11849 171.91241 C 402.95355 175.164 401.25 178.06292 400.33333 178.35577 C 399.41667 178.64864 398.66732 178.42783 398.66732 177.86358 C 398.66732 173.53329 403.71001 158.01435 407.02865 152.13312 C 412.50403 142.42967 426.3614 127.98277 434.37825 123.61944 C 440.88229 120.07952 449.54132 117.67905 454.24349 117.84601 z M 148.07161 118.98663 C 151.78043 119.01817 164.48959 121.43425 165.99935 122.56476 C 166.73268 123.11388 170.73203 124.91065 174.88607 126.55694 C 186.49533 131.1579 198.11905 143.95283 206.61849 161.48858 C 212.96895 174.59065 215.00717 182.66632 211.96615 182.66632 C 211.21467 182.66632 210.03721 181.18556 209.34896 179.3753 C 198.64299 151.21648 186.16116 134.95655 168.66732 126.38116 C 165.00065 124.58378 158.50337 122.35905 154.22982 121.4378 C 149.95626 120.51655 146.74372 119.47858 147.09115 119.13116 C 147.19466 119.02765 147.54178 118.98213 148.07161 118.98663 z M 300.08724 140.0003 C 302.367 140.0003 306.66732 142.64484 306.66732 144.04718 C 306.66732 145.58272 305.66342 145.56547 301.66732 143.95929 C 298.60584 142.72873 297.51663 140.0003 300.08724 140.0003 z M 310.33333 144.17218 C 310.55946 144.17447 310.60679 144.84811 310.6263 146.25421 C 310.6486 147.86093 311.26602 149.54707 311.99935 150.0003 C 313.97868 151.22359 313.61417 153.33429 311.42318 153.33429 C 310.37259 153.33429 309.13594 152.14553 308.67513 150.69366 C 308.21433 149.2418 308.45648 146.9918 309.21224 145.69366 C 309.79581 144.69128 310.13381 144.17016 310.33333 144.17218 z M 488.84505 144.86554 C 488.41331 144.84588 487.94216 144.89049 487.42904 144.98858 C 485.54274 145.34916 483.99935 146.08297 483.99935 146.61944 C 483.99935 147.65343 476.25027 151.22502 470.66732 152.76398 C 468.83398 153.26932 465.83268 154.70597 463.99935 155.95538 C 462.16602 157.20479 457.9673 159.51513 454.66732 161.09015 C 440.0454 168.06881 426.97797 182.12971 422.8431 195.33429 C 421.92455 198.26763 421.01688 208.16765 420.82552 217.33429 C 420.50747 232.56949 421.30897 238.66632 423.63021 238.66632 C 424.10877 238.66632 427.83836 236.0592 431.91732 232.8714 C 435.99628 229.68359 443.40723 225.14106 448.38607 222.77765 C 459.78805 217.36521 473.24844 207.41808 482.46224 197.59796 C 486.45146 193.34623 489.23964 191.17422 488.79232 192.66632 C 487.99903 195.31236 488.0099 195.31249 490.02474 192.70733 C 494.42584 187.01675 495.96553 174.26587 494.16927 158.38507 C 493.02706 148.28687 491.86722 145.00317 488.84505 144.86554 z M 317.04427 145.92023 C 317.13577 145.91178 317.23268 145.93809 317.33333 146.0003 C 318.06667 146.45353 318.66732 148.88904 318.66732 151.41241 C 318.66732 153.93579 318.06667 156.0003 317.33333 156.0003 C 316.6 156.0003 315.99935 153.56481 315.99935 150.58819 C 315.99935 147.72829 316.40374 145.97933 317.04427 145.92023 z M 297.85677 146.66632 C 300.05765 146.66632 301.33333 147.39998 301.33333 148.66632 C 301.33333 149.76632 300.43333 150.66632 299.33333 150.66632 C 298.23333 150.66632 297.33333 151.56632 297.33333 152.66632 C 297.33333 154.96486 295.04132 155.19204 291.66732 153.22687 C 288.1821 151.19693 288.84662 149.16099 292.68099 150.12335 C 295.39106 150.80354 295.87361 150.55352 295.20638 148.81476 C 294.57821 147.17777 295.20818 146.66632 297.85677 146.66632 z M 324.99935 149.94952 C 325.15314 149.94381 325.31625 149.98934 325.48568 150.09405 C 326.13564 150.49576 326.66732 152.28838 326.66732 154.07843 C 326.66732 155.86849 327.24801 157.33429 327.95833 157.33429 C 328.66864 157.33429 328.90388 158.23429 328.48177 159.33429 C 327.34971 162.28439 325.43221 161.76776 324.05404 158.14288 C 322.81534 154.88487 323.51265 150.00476 324.99935 149.94952 z M 285.41927 153.90069 C 286.10626 153.90169 287.07098 154.03124 288.33333 154.27374 C 290.35 154.66114 291.99935 155.80805 291.99935 156.82257 C 291.99935 159.30095 287.41187 159.1725 285.30599 156.63507 C 283.72596 154.73127 283.66362 153.89815 285.41927 153.90069 z M 332.03255 154.66632 C 333.48395 154.66632 335.99935 160.21762 335.99935 163.42023 C 335.99935 166.5696 333.3618 165.58328 331.96615 161.91241 C 330.28606 157.49346 330.31222 154.66632 332.03255 154.66632 z M 130.88802 156.0003 C 127.91774 156.0003 127.3352 156.27376 127.67904 157.50421 C 127.86918 158.18461 127.06803 159.10862 125.89974 159.55694 C 124.24771 160.19088 124.15825 160.60674 125.49349 161.43194 C 126.89066 162.29544 126.88139 163.19191 125.44857 166.2464 C 124.48023 168.31076 123.26683 170.9003 122.7513 172.0003 C 120.75869 176.25197 123.53041 196.49598 127.04427 203.35968 C 131.65998 212.37566 139.32291 222.22576 147.29036 229.38312 C 150.93333 232.65566 155.30223 236.67467 156.99935 238.31476 C 158.69647 239.95487 165.31511 244.68735 171.70833 248.83038 C 178.10157 252.97345 184.53269 257.14993 185.99935 258.11163 C 189.08702 260.13625 190.75092 260.34758 192.80208 258.97882 C 195.16982 257.3988 195.8888 250.32545 194.05208 246.68976 C 191.32317 241.28792 190.41604 233.70412 190.52083 217.15655 C 190.60653 203.60759 190.28299 201.20672 187.97591 198.27374 C 186.52213 196.42556 185.33333 194.25833 185.33333 193.45733 C 185.33333 192.65635 184.73268 192.0003 183.99935 192.0003 C 183.26602 192.0003 182.66732 191.34593 182.66732 190.54718 C 182.66732 187.62406 170.91605 177.8904 162.57357 173.90265 C 152.09284 168.89278 136.69223 161.18366 133.23372 159.21515 C 131.83032 158.41636 131.07925 157.3657 131.5638 156.88116 C 132.04834 156.39661 131.74357 156.0003 130.88802 156.0003 z M 278.48372 157.70538 C 280.59868 157.74809 285.33333 160.01834 285.33333 161.30108 C 285.33333 163.39891 280.5377 162.9217 278.63997 160.63507 C 277.71234 159.51735 277.25488 158.29944 277.62435 157.92999 C 277.78964 157.7647 278.09207 157.69747 278.48372 157.70538 z M 339.39193 159.33429 L 341.11263 162.40265 C 342.05923 164.09049 342.63352 166.79049 342.38802 168.40265 L 341.94075 171.33429 L 340.22005 168.26398 C 339.27345 166.57614 338.69915 163.87612 338.94466 162.26398 L 339.39193 159.33429 z M 271.86263 161.56866 C 272.41893 161.57994 273.08003 161.87981 273.6224 162.42218 C 274.49015 163.28995 276.32918 164.0003 277.71029 164.0003 C 279.09139 164.0003 279.98494 164.71345 279.69466 165.58429 C 278.80733 168.24631 276.55979 168.21437 273.20247 165.49249 C 271.44148 164.06485 270.46056 162.43367 271.02279 161.86944 C 271.23361 161.65785 271.52885 161.5619 271.86263 161.56866 z M 346.58919 163.41437 C 347.24586 163.33901 348.39065 165.37972 349.22786 168.17413 C 350.9441 173.90241 350.60099 175.85563 348.37435 173.03155 C 346.39697 170.52362 345.14931 164.27193 346.46419 163.45929 C 346.50339 163.43506 346.54541 163.41939 346.58919 163.41437 z M 470.98372 163.98077 C 472.28358 163.86284 473.14268 165.73321 473.09115 169.4671 C 473.03405 173.60414 472.01859 176.07193 468.91927 179.60187 C 466.66619 182.16795 462.98824 187.16057 460.74544 190.69757 C 458.50265 194.23458 454.11602 199.83961 450.99935 203.15265 C 447.88268 206.46567 445.33333 209.8551 445.33333 210.6839 C 445.33333 212.48255 443.28164 214.54777 438.38021 217.6839 C 433.95685 220.51409 434.25897 220.51453 430.77083 217.66632 C 425.71655 213.53926 428.23754 207.41065 439.13021 197.33429 C 455.29186 182.38381 465.26837 171.99484 467.3724 167.92608 C 468.69528 165.3679 469.97272 164.0725 470.98372 163.98077 z M 264.89193 165.38116 C 266.97087 165.31716 274.64687 169.73414 274.65755 171.0003 C 274.67435 172.98993 271.24897 171.91693 267.33333 168.70733 C 265.13335 166.90403 264.03469 165.40753 264.89193 165.38116 z M 361.13021 168.0003 C 362.08581 168.0003 365.38563 174.90548 366.52865 179.29913 C 367.36017 182.49553 363.94999 181.10572 362.07747 177.48468 C 359.82531 173.12944 359.31293 168.0003 361.13021 168.0003 z M 371.13997 172.0003 C 372.64411 172.0003 377.32177 182.51722 376.14193 183.2464 C 375.49714 183.6449 374.30361 183.17023 373.49154 182.19171 C 371.80416 180.15859 369.92196 172.0003 371.13997 172.0003 z M 251.37044 175.07648 C 253.0698 175.08902 259.98179 179.17648 259.99154 180.33233 C 260.00924 182.43104 255.1524 181.20906 252.86654 178.53937 C 251.55106 177.003 250.73808 175.48422 251.05794 175.16437 C 251.1197 175.10261 251.22643 175.07541 251.37044 175.07648 z M 379.41146 176.46319 C 379.57973 176.46431 379.77877 176.52982 380.00911 176.67218 C 380.74766 177.12862 382.24515 179.23022 383.33724 181.3421 C 385.76315 186.03328 383.70516 187.93377 380.75716 183.72491 C 378.69159 180.7759 378.04124 176.45409 379.41146 176.46319 z M 388.33919 177.39483 C 388.59455 177.35618 389.08452 177.98792 390.04232 179.25421 C 392.20415 182.11238 392.67596 186.66632 390.8099 186.66632 C 390.15502 186.66632 389.25502 185.71693 388.8099 184.55694 C 388.36477 183.39699 388.019 181.14697 388.04232 179.55694 C 388.06307 178.14253 388.08383 177.43349 388.33919 177.39483 z M 244.4056 178.06085 C 246.19162 178.12913 253.27864 182.97782 253.3099 184.33429 C 253.3536 186.23211 250.80285 185.32339 247.07357 182.11358 C 245.01601 180.34265 243.66689 178.56059 244.07357 178.15265 C 244.14125 178.08475 244.25424 178.05506 244.4056 178.06085 z M 137.33138 179.77179 C 138.20376 179.67179 139.98949 181.2796 143.41341 184.78155 C 144.92406 186.32663 149.12472 189.28847 152.7474 191.36358 C 168.95743 200.64898 181.33333 214.81647 181.33333 224.08624 C 181.33333 231.92956 174.70889 233.17076 168.10286 226.56476 C 165.84648 224.30834 163.99935 221.33536 163.99935 219.95929 C 163.99935 218.58324 158.69381 212.17965 152.20833 205.72882 C 139.20974 192.79957 136.88625 189.41484 136.61458 183.01593 C 136.52735 180.96119 136.65286 179.84957 137.33138 179.77179 z M 238.23372 181.73077 C 240.35302 181.74701 246.66732 185.27388 246.66732 186.70148 C 246.66732 188.86466 243.26124 188.16201 239.98958 185.32452 C 238.29313 183.8532 237.24537 182.30897 237.66146 181.89288 C 237.77575 181.77859 237.97346 181.72878 238.23372 181.73077 z M 395.59505 182.17804 C 396.09976 182.18665 396.90872 182.91729 398.24544 184.45929 C 400.66001 187.24468 400.84761 188.07655 399.33919 189.32843 C 397.92565 190.50156 397.18272 190.20885 396.00911 188.01593 C 395.17828 186.46348 394.68566 184.27267 394.91536 183.14679 C 395.04652 182.50395 395.24972 182.17214 395.59505 182.17804 z M 402.32552 182.92023 C 402.85229 182.92083 403.67436 183.49022 404.63802 184.76398 C 406.91959 187.77975 407.17193 189.33429 405.38021 189.33429 C 404.67268 189.33429 403.42338 188.08252 402.60482 186.55304 C 401.40055 184.30284 401.50377 182.91928 402.32552 182.92023 z M 231.99935 184.08624 C 234.01618 184.08924 239.99935 188.42274 239.99935 189.88116 C 239.99935 191.588 237.3008 190.5066 233.74154 187.3753 C 231.29784 185.22544 230.69291 184.08479 231.99935 184.08624 z M 215.09505 185.10968 C 216.22383 185.13419 219.28628 186.70625 221.5931 188.91632 C 226.01676 193.15448 226.3002 194.66632 222.66732 194.66632 C 221.20065 194.66632 219.99935 194.06763 219.99935 193.33429 C 219.99935 191.20613 217.57187 191.79422 217.097 194.03741 C 216.71335 195.84984 216.33788 195.8404 213.67708 193.9671 C 210.2283 191.53904 207.23371 186.66632 209.19075 186.66632 C 209.89749 186.66632 211.37591 187.56632 212.47591 188.66632 C 214.62727 190.81768 217.33333 191.33787 217.33333 189.59991 C 217.33333 189.01324 216.61372 187.8139 215.73372 186.9339 C 214.43736 185.63754 214.41778 185.09497 215.09505 185.10968 z M 224.75325 185.74444 C 226.44059 185.78397 231.89983 189.60448 231.95833 191.0003 C 232.04123 192.97819 228.36494 191.94495 225.99349 189.32452 C 224.6621 187.85336 223.92644 186.29586 224.36068 185.86163 C 224.44436 185.77794 224.57871 185.74036 224.75325 185.74444 z M 204.00521 186.91046 C 204.62949 186.89024 205.38968 187.59292 206.69271 189.14679 C 208.14447 190.87804 209.33333 192.82869 209.33333 193.48077 C 209.33333 195.66957 204.10755 194.69401 202.80599 192.26202 C 201.99037 190.73801 201.98347 189.14979 202.78646 187.92804 C 203.21453 187.27678 203.57807 186.92429 204.00521 186.91046 z M 402.28646 215.34991 C 402.89231 215.36606 402.82235 216.58783 401.61263 219.00226 C 400.78648 220.65115 399.93584 223.47493 399.722 225.27765 C 399.14181 230.16902 390.68457 235.35825 373.6263 241.28937 C 358.16337 246.66578 352.48128 249.80559 346.54818 256.2503 C 342.96452 260.14298 340.54078 261.22614 341.88802 258.33429 C 342.31536 257.41736 343.00199 255.74525 343.41341 254.61944 C 344.58213 251.42138 355.73561 244.50922 365.99935 240.62335 C 386.04856 233.03272 393.00517 228.4477 398.90755 218.92999 C 400.40019 216.52308 401.68061 215.33377 402.28646 215.34991 z M 559.72005 225.38507 C 561.35486 225.38507 562.52743 225.81187 561.99935 226.66632 C 561.54612 227.39965 559.26127 227.99004 556.92122 227.97882 C 553.68381 227.96332 553.14549 227.6498 554.66732 226.66632 C 555.98949 225.81187 558.08524 225.38507 559.72005 225.38507 z M 205.12435 226.80108 C 205.75968 226.94052 206.64495 228.15865 207.53841 230.52569 C 209.72408 236.3162 214.58033 238.71966 231.04818 242.16241 C 248.38779 245.78744 249.51634 246.21914 258.55013 252.70929 C 269.14567 260.32141 267.5995 260.80421 254.66732 253.92023 C 248.61614 250.69911 241.7743 248.51557 231.99935 246.6839 C 224.29937 245.24105 216.67486 243.74107 215.05599 243.35187 C 210.2575 242.19819 205.26346 236.60742 204.42708 231.45343 C 203.90293 228.22347 204.30749 226.62182 205.12435 226.80108 z M 552.82357 232.0003 C 554.70628 232.0003 555.79876 232.58121 555.33333 233.33429 C 554.88011 234.06763 553.00846 234.66632 551.17513 234.66632 C 549.29242 234.66632 548.20189 234.08737 548.66732 233.33429 C 549.12054 232.60096 550.99024 232.0003 552.82357 232.0003 z M 544.70638 240.1253 C 546.54934 240.12713 547.99935 240.64679 547.99935 241.33429 C 547.99935 242.06763 547.85065 242.6066 547.66732 242.53351 C 547.48398 242.46041 545.83268 241.92143 543.99935 241.33429 L 540.66732 240.26593 L 544.33333 240.13312 C 544.45937 240.12855 544.58352 240.12518 544.70638 240.1253 z M 57.436849 243.8753 C 57.569353 243.87334 57.6929 243.92604 57.804036 244.03937 C 58.14279 244.3848 57.624346 246.46632 56.651692 248.66632 C 55.283219 251.76161 54.864223 252.06383 54.796224 250.0003 C 54.71222 247.45098 56.357878 243.89133 57.436849 243.8753 z M 544.1595 245.43194 C 545.39411 245.41733 545.14379 246.06503 543.41146 247.3753 C 540.5304 249.55444 537.33333 249.96413 537.33333 248.1546 C 537.33333 247.5068 538.68333 246.6163 540.33333 246.17413 C 542.14367 245.68898 543.41875 245.44071 544.1595 245.43194 z M 62.380208 250.85577 C 62.640132 250.83675 62.578005 251.36221 62.196614 252.44171 C 61.722017 253.78501 61.333333 256.33632 61.333333 258.10968 C 61.333333 259.88303 60.74755 261.33429 60.032552 261.33429 C 59.288692 261.33429 59.079037 259.47983 59.542317 257.0003 C 59.987623 254.61699 60.962091 252.06763 61.70638 251.33429 C 62.019681 251.0256 62.244057 250.86574 62.380208 250.85577 z M 536.76107 252.6546 C 537.71194 252.66005 538.29922 252.84813 538.03255 253.2796 C 537.56116 254.04232 535.61084 254.66632 533.69857 254.66632 C 531.78629 254.66632 530.47311 254.4513 530.77865 254.1878 C 531.80952 253.2988 534.94577 252.64419 536.76107 252.6546 z M 66.886067 259.25421 C 67.566724 259.18967 67.999349 260.96012 67.999349 263.92218 C 67.999349 266.89879 67.40065 269.33429 66.667317 269.33429 C 65.933985 269.33429 65.333333 267.26783 65.333333 264.74444 C 65.333333 262.22107 65.933985 259.78752 66.667317 259.33429 C 66.742809 259.28763 66.815655 259.26089 66.886067 259.25421 z M 529.33333 261.50616 C 529.9375 261.50616 530.54101 261.59857 530.99935 261.78351 C 531.91602 262.15339 531.16667 262.45538 529.33333 262.45538 C 527.5 262.45538 526.75065 262.15339 527.66732 261.78351 C 528.12565 261.59857 528.72917 261.50616 529.33333 261.50616 z M 73.323567 266.03937 C 73.951425 265.98125 74.633483 268.30213 74.884114 271.45343 C 75.404909 278.00154 74.154654 280.56602 72.837239 275.65069 C 71.664416 271.27485 71.827636 266.92961 73.198567 266.08233 C 73.239797 266.05685 73.28171 266.04324 73.323567 266.03937 z M 521.33333 269.50616 C 521.9375 269.50616 522.54101 269.59857 522.99935 269.78351 C 523.91602 270.15339 523.16667 270.45538 521.33333 270.45538 C 519.5 270.45538 518.75065 270.15339 519.66732 269.78351 C 520.12565 269.59857 520.72917 269.50616 521.33333 269.50616 z M 80.598958 274.38507 C 80.696453 274.37321 80.806969 274.57975 80.923177 275.02569 C 81.261232 276.32299 81.239572 278.12301 80.874349 279.02569 C 80.509113 279.9284 80.231941 278.86632 80.259114 276.66632 C 80.276945 275.22257 80.412831 274.40771 80.598958 274.38507 z M 514.38021 276.16241 C 514.9176 276.15467 515.38881 276.27846 515.63802 276.52765 C 516.08108 276.9707 515.29357 277.28672 513.88802 277.22882 C 512.33476 277.16482 512.01969 276.8478 513.08333 276.42218 C 513.50443 276.25367 513.96224 276.16843 514.38021 276.16241 z M 87.259114 281.94171 C 87.347268 281.94883 87.4461 282.07648 87.55013 282.33429 C 87.920013 283.25096 87.920013 284.74965 87.55013 285.66632 C 87.180246 286.58298 86.876302 285.83363 86.876302 284.0003 C 86.876302 282.6826 87.033833 281.92352 87.259114 281.94171 z M 506.74544 282.66632 C 507.52205 282.66632 507.78656 283.26697 507.33333 284.0003 C 506.88011 284.73363 506.2446 285.33429 505.92122 285.33429 C 505.59783 285.33429 505.33333 284.73363 505.33333 284.0003 C 505.33333 283.26697 505.96883 282.66632 506.74544 282.66632 z M 95.339192 287.09015 C 95.818605 287.06214 95.999349 287.88932 95.999349 289.73273 C 95.999349 293.74431 95.001169 294.42521 93.780599 291.24444 C 93.339573 290.09516 93.658873 288.47358 94.489583 287.64288 C 94.841129 287.29134 95.121279 287.10288 95.339192 287.09015 z M 205.71029 287.75226 C 206.23333 287.70253 206.6867 288.94297 207.10677 291.53155 C 207.90355 296.44155 206.77552 299.66318 204.91146 297.79913 C 203.64528 296.53294 203.80776 290.36911 205.16341 288.23077 C 205.35429 287.92969 205.53594 287.76883 205.71029 287.75226 z M 501.41146 290.66632 C 502.18807 290.66632 502.45258 291.26697 501.99935 292.0003 C 501.54612 292.73363 500.91063 293.33429 500.58724 293.33429 C 500.26386 293.33429 499.99935 292.73363 499.99935 292.0003 C 499.99935 291.26697 500.63484 290.66632 501.41146 290.66632 z M 211.79818 291.04913 C 211.96541 291.05264 212.12807 291.17075 212.27669 291.42218 C 212.68139 292.10683 212.85702 295.04179 212.66732 297.94562 C 212.24166 304.46198 209.29315 306.12909 209.42708 299.77765 C 209.5215 295.30019 210.77617 291.02771 211.79818 291.04913 z M 399.19075 292.0003 C 400.44451 292.0003 401.33333 293.10593 401.33333 294.66632 C 401.33333 296.13298 400.73268 297.33429 399.99935 297.33429 C 399.26602 297.33429 398.66732 298.23429 398.66732 299.33429 C 398.66732 302.12905 396.9489 301.82437 394.98763 298.6839 C 392.70322 295.02598 392.90524 294.35083 395.99154 295.33038 C 398.03216 295.97806 398.4638 295.68849 397.84896 294.08624 C 397.32692 292.72582 397.79425 292.0003 399.19075 292.0003 z M 217.38216 294.93976 C 218.21971 294.95825 218.66732 296.14498 218.66732 298.38898 C 218.66732 300.5584 219.04102 304.20865 219.49935 306.5003 C 220.47455 311.37627 217.8203 312.402 216.61849 307.61358 C 215.13842 301.71654 215.32358 295.56389 216.99935 295.00226 C 217.1348 294.95686 217.26251 294.93712 217.38216 294.93976 z M 102.52474 296.0003 C 104.26666 296.0003 105.61181 300.25503 104.28841 301.57843 C 103.66549 302.20136 102.74461 302.30024 102.24349 301.79913 C 100.91342 300.46906 101.13056 296.0003 102.52474 296.0003 z M 389.16927 298.65655 C 390.42545 298.65503 393.33333 301.8359 393.33333 303.4964 C 393.33333 306.4164 390.69231 305.62703 389.44661 302.33429 C 388.82238 300.68429 388.5269 299.09868 388.79036 298.81085 C 388.88637 298.70596 389.015 298.65674 389.16927 298.65655 z M 496.39974 298.71124 C 496.42827 298.70972 496.45566 298.71048 496.48177 298.71124 C 497.3172 298.73564 496.58414 299.935 494.85286 301.37726 C 493.12163 302.81953 491.02029 303.97978 490.1849 303.95538 C 489.34947 303.93098 490.08252 302.73162 491.8138 301.28937 C 493.49096 299.89218 495.51541 298.75847 496.39974 298.71124 z M 223.9095 300.0003 C 225.20879 300.0003 225.88478 301.77401 227.33919 309.0003 C 228.31749 313.86105 226.82551 314.69327 224.32161 310.6839 C 222.38973 307.59043 222.09649 300.0003 223.9095 300.0003 z M 380.88021 300.04132 C 380.94438 300.03855 381.01138 300.03822 381.07943 300.04132 C 383.01108 300.12922 386.61702 306.57807 385.85091 308.57452 C 384.63878 311.73329 382.96219 311.10657 380.64583 306.62726 C 378.76836 302.99662 378.89103 300.1271 380.88021 300.04132 z M 229.43685 300.66632 L 231.43294 305.26398 C 233.85138 310.83864 233.44659 315.62571 230.94075 311.08819 C 230.05618 309.48643 229.35736 306.48509 229.38607 304.42023 L 229.43685 300.66632 z M 109.76693 301.54132 C 110.03961 301.52952 110.5112 302.10949 111.33333 303.19562 C 113.26179 305.7433 112.91086 308.0003 110.58724 308.0003 C 109.89718 308.0003 109.35298 306.35096 109.3763 304.33429 C 109.39829 302.43435 109.43782 301.55556 109.76693 301.54132 z M 243.39193 302.99444 C 244.69231 302.95769 248.72294 307.15418 249.72591 309.76788 C 251.28775 313.83797 246.83575 312.19322 244.60286 307.8753 C 243.42997 305.60718 242.76472 303.45759 243.12435 303.09796 C 243.19182 303.03049 243.28173 302.99756 243.39193 302.99444 z M 236.38411 303.58429 C 236.78785 303.60756 237.55905 304.28864 238.66732 305.69757 C 240.13398 307.56213 241.33333 309.74227 241.33333 310.54327 C 241.33333 313.19035 239.12155 312.05701 237.54818 308.60382 C 236.05705 305.33116 235.71122 303.54549 236.38411 303.58429 z M 252.85482 304.26398 C 253.19087 304.2516 253.33333 304.69581 253.33333 305.6214 C 253.33333 306.80694 254.08269 308.05286 254.99935 308.38898 C 256.26475 308.85296 256.29603 309.39533 255.12435 310.64288 C 253.9169 311.92857 253.23594 311.64487 251.99935 309.33429 C 250.85644 307.19875 250.82266 305.97772 251.8763 304.92413 C 252.30432 304.49611 252.62489 304.27244 252.85482 304.26398 z M 356.10677 304.66632 L 358.13802 308.41241 C 360.45526 312.68687 360.15091 315.61866 357.64974 313.11749 C 356.74223 312.20998 356.02468 309.93671 356.05404 308.06671 L 356.10677 304.66632 z M 371.78646 305.33429 C 372.40209 305.33429 373.58784 306.83298 374.42318 308.66632 C 376.22901 312.62974 374.68372 313.13418 372.32161 309.35187 C 370.37875 306.24084 370.25764 305.33429 371.78646 305.33429 z M 349.66927 305.37335 C 349.92366 305.34924 350.41465 305.98279 351.3763 307.25421 C 352.45298 308.6777 353.33333 310.329 353.33333 310.92218 C 353.33333 312.2267 351.45158 312.34121 350.222 311.11163 C 349.73312 310.62275 349.35298 308.97145 349.3763 307.44366 C 349.3971 306.0791 349.41488 305.39747 349.66927 305.37335 z M 363.14779 305.94366 C 363.58685 305.94643 364.32921 307.02422 365.11068 309.26593 C 365.93884 311.64161 366.01172 313.33429 365.28841 313.33429 C 364.6072 313.33429 363.66728 311.80528 363.19857 309.9378 C 362.54078 307.317 362.65018 305.94052 363.14779 305.94366 z M 120.61654 311.0296 C 121.0647 310.99767 121.92167 311.9391 122.66732 313.33233 C 123.51948 314.92461 123.91679 316.52819 123.55013 316.89483 C 123.18346 317.2615 122.1855 316.2586 121.33333 314.66632 C 120.48117 313.07404 120.08386 311.47243 120.45052 311.10577 C 120.49635 311.05994 120.55251 311.03416 120.61654 311.0296 z M 405.2513 314.58819 C 404.38251 314.61628 403.92529 316.13442 404.77669 317.51202 C 405.61673 318.87125 405.93053 318.87316 406.38216 317.51788 C 406.69096 316.5915 406.58108 315.4707 406.13802 315.02765 C 405.82036 314.70999 405.51726 314.5796 405.2513 314.58819 z M 154.07552 337.36358 C 155.09645 337.3733 155.99935 337.76201 155.99935 338.52374 C 155.99935 339.99542 152.53986 341.42947 151.49935 340.38898 C 151.08093 339.97055 151.05851 339.11183 151.44857 338.48077 C 151.9166 337.72349 153.0546 337.35387 154.07552 337.36358 z M 463.50325 341.90655 C 463.76947 341.87197 463.85898 342.84419 463.9056 345.0003 C 463.9572 347.38363 463.40065 349.33233 462.66732 349.33233 C 461.93398 349.33233 461.37554 348.58298 461.42708 347.66632 C 461.47868 346.74965 462.03706 344.799 462.66732 343.33233 C 463.05743 342.4245 463.32111 341.93022 463.50325 341.90655 z M 227.20833 343.12726 C 227.47954 343.11283 227.77727 343.19573 228.0931 343.39093 C 229.69828 344.38297 229.70087 348.94844 228.097 349.93976 C 227.41648 350.36036 226.47591 349.5023 226.00911 348.03155 C 225.20381 345.49427 225.90162 343.19675 227.20833 343.12726 z M 152.11068 347.05108 C 153.06902 347.05881 153.33333 347.70046 153.33333 349.24249 C 153.33333 352.17433 151.25649 352.75422 148.03841 350.71905 C 145.76953 349.28417 146.18561 348.68346 150.33333 347.40851 C 151.09617 347.17402 151.67507 347.04758 152.11068 347.05108 z M 468.04232 348.69952 C 468.65204 348.69688 469.32137 350.39706 469.597 352.75812 C 470.13448 357.36206 469.25297 359.47464 467.51888 357.74054 C 466.23724 356.45889 466.49378 349.59732 467.85482 348.75616 C 467.91611 348.71828 467.97924 348.6998 468.04232 348.69952 z M 127.00716 364.0003 C 127.34915 364.00185 128.11404 364.18457 129.33333 364.48273 C 131.16667 364.93103 133.71602 365.30475 134.99935 365.31476 C 136.28268 365.32546 137.33333 365.93298 137.33333 366.66632 C 137.33333 368.73349 131.63932 368.15879 128.66732 365.79132 C 127.04159 364.4963 126.43717 363.99773 127.00716 364.0003 z M 309.23177 370.75812 C 310.4953 370.68803 311.99935 372.56263 311.99935 374.66632 C 311.99935 378.64714 309.49968 379.12536 308.54622 375.32648 C 308.06998 373.429 308.01144 371.54298 308.41732 371.13702 C 308.66188 370.89247 308.94019 370.77429 309.23177 370.75812 z M 319.33333 372.0003 C 320.43333 372.0003 321.33333 373.13554 321.33333 374.52374 C 321.33333 375.91196 320.43333 377.39264 319.33333 377.81476 C 317.88841 378.36922 317.33333 377.6693 317.33333 375.29132 C 317.33333 373.25444 318.09567 372.0003 319.33333 372.0003 z M 301.60091 372.62335 C 302.92024 372.57289 304.22414 375.89199 303.25911 377.45343 C 301.94549 379.57894 299.99935 378.75815 299.99935 376.07843 C 299.99935 374.65505 300.53621 373.158 301.19271 372.75226 C 301.32703 372.66924 301.46443 372.62857 301.60091 372.62335 z M 327.7181 372.62726 C 327.86039 372.62779 328.00213 372.66706 328.13997 372.75226 C 330.18167 374.0141 329.51544 380.0003 327.33333 380.0003 C 326.23333 380.0003 325.33333 379.1497 325.33333 378.10968 C 325.33333 375.27372 326.55948 372.62292 327.7181 372.62726 z M 293.27865 373.59796 C 294.22586 373.58889 295.36891 375.15362 295.4681 377.77569 C 295.5997 381.25615 294.66569 382.22133 292.88802 380.44366 C 292.39913 379.95478 291.99935 378.10652 291.99935 376.33429 C 291.99935 374.451 292.58742 373.60458 293.27865 373.59796 z M 334.95247 374.75421 C 335.11196 374.75535 335.25725 374.81289 335.38216 374.9378 C 336.54796 376.1036 334.79924 381.33429 333.24349 381.33429 C 332.55958 381.33429 332.00961 380.58298 332.02083 379.66632 C 332.04708 377.52535 333.8361 374.74623 334.95247 374.75421 z M 284.71615 375.14093 C 285.17131 375.12653 285.86341 375.83037 286.68294 377.36163 C 287.7637 379.38104 287.81975 380.71506 286.86458 381.67023 C 285.90941 382.62539 285.20141 381.94138 284.57943 379.46319 C 283.89011 376.71677 284.0509 375.16197 284.71615 375.14093 z M 341.7513 376.62335 C 342.26605 376.60579 342.80762 377.10859 343.24349 378.24444 C 343.72572 379.50108 343.2033 381.36666 342.04818 382.52179 C 340.20508 384.36488 339.99935 384.21616 339.99935 381.03155 C 339.99935 378.33902 340.8337 376.65465 341.7513 376.62335 z M 277.21029 377.42023 C 277.54902 377.41464 278.00406 377.59123 278.57747 377.94562 C 280.28863 379.00318 280.49013 384.0003 278.82161 384.0003 C 278.17381 384.0003 277.29747 382.67687 276.87435 381.0589 C 276.24017 378.63375 276.34464 377.43449 277.21029 377.42023 z M 345.85091 380.35968 C 346.15523 380.32113 346.63341 380.72811 347.38216 381.47687 C 348.54135 382.63604 349.05913 384.49859 348.57357 385.76398 C 347.15895 389.45039 345.33333 388.29628 345.33333 383.71515 C 345.33333 381.4262 345.40614 380.41602 345.85091 380.35968 z M 270.69075 382.96124 C 270.81219 382.95805 270.94959 382.98183 271.10482 383.03351 C 273.02259 383.672 274.02337 388.0003 272.25325 388.0003 C 271.55168 388.0003 270.65556 386.76663 270.26107 385.25812 C 269.87609 383.78597 270.03504 382.97845 270.69075 382.96124 z M 353.08919 384.10968 C 353.92168 384.13652 355.24134 385.00481 357.08138 386.71905 C 360.47491 389.8806 360.8433 392.0003 357.99935 392.0003 C 356.89935 392.0003 355.99935 391.37319 355.99935 390.60773 C 355.99935 389.84225 355.23261 389.39225 354.29427 389.60773 C 352.48991 390.02209 351.99935 389.25279 351.99935 386.0003 C 351.99935 384.7173 352.35464 384.086 353.08919 384.10968 z M 264.72396 384.51788 C 265.02887 384.51612 265.44987 384.64101 265.99935 384.85187 C 268.17034 385.68496 268.73057 390.05833 266.81771 391.24054 C 266.16775 391.64224 265.27727 390.62644 264.83724 388.98468 C 263.94635 385.66071 263.80923 384.52318 264.72396 384.51788 z M 259.1595 389.48273 C 261.37998 389.43567 264.56262 392.82729 262.90169 393.85382 C 262.1571 394.314 260.52036 393.66194 259.26302 392.4046 C 257.62585 390.76742 257.44195 389.9628 258.61849 389.57062 C 258.7893 389.51368 258.97134 389.48671 259.1595 389.48273 z M 252.95247 393.44171 C 254.26446 393.44083 258.66732 397.48313 258.66732 398.87335 C 258.66732 400.99138 256.15406 400.00329 254.10677 397.08038 C 252.98206 395.47463 252.34349 393.8788 252.6888 393.53351 C 252.75103 393.47128 252.84129 393.44178 252.95247 393.44171 z M 329.73177 403.25812 C 336.86327 403.14599 341.98143 407.23561 340.48568 412.95538 C 339.30481 417.47106 334.36211 418.85501 328.14388 416.41241 C 320.50947 413.41354 315.53804 415.64834 311.98958 423.67023 C 309.37064 429.5908 308.38639 437.56248 310.33333 437.09015 C 310.88333 436.95672 313.73398 437.55366 316.66732 438.41632 C 324.05984 440.59043 339.88946 440.34972 343.99935 438.0003 C 348.35472 435.51056 350.66732 435.51727 350.66732 438.01983 C 350.66732 441.82716 342.61271 445.32307 333.82943 445.32843 C 329.33566 445.33143 323.50506 446.23429 320.8724 447.33429 C 316.13089 449.31542 297.28811 450.17578 295.60091 448.48858 C 295.13646 448.02414 290.63552 447.44634 285.59896 447.20538 C 275.20051 446.70793 270.5481 445.24385 264.33919 440.50812 C 261.37014 438.2435 259.99935 436.08354 259.99935 433.67023 L 259.99935 430.14288 L 264.33333 434.22687 C 266.71667 436.47235 270.70581 438.98894 273.19857 439.82062 C 279.48115 441.9167 293.8419 441.71329 299.25521 439.45148 C 303.48688 437.68336 303.73633 437.22265 303.4095 431.78546 C 302.91388 423.54013 301.4262 418.98679 298.91146 418.02179 C 297.71182 417.56144 292.99028 417.5869 288.41927 418.07648 C 278.93515 419.09212 275.66283 417.22876 275.20052 410.55108 C 274.98105 407.38107 275.60561 406.58875 279.13607 405.55694 C 289.88404 402.41574 296.46738 404.55077 302.66732 413.19171 C 306.97179 419.19095 307.51508 419.53627 309.66732 417.64093 C 310.95065 416.51075 311.99935 414.77962 311.99935 413.79327 C 311.99935 412.80694 312.63484 412.0003 313.41146 412.0003 C 314.18807 412.0003 314.45258 411.39966 313.99935 410.66632 C 313.54612 409.93299 314.04784 409.33429 315.11263 409.33429 C 316.17745 409.33429 317.35732 408.52732 317.73568 407.54132 C 318.11405 406.55532 321.17101 404.97945 324.52865 404.03937 C 326.33223 403.53439 328.08604 403.28399 329.73177 403.25812 z " />
    <path
       style="fill:#ffff00;stroke-width:1.33333"
       d="m 222.96615,262.6878 c -4.99424,-0.0179 -5.87101,0.43018 -7.0879,3.63086 -2.86746,7.54199 1.9179,17.65546 9.95118,21.03321 4.21759,1.77335 8.48992,1.53767 14.16992,-0.78321 6.67954,-2.72929 12.23028,-15.91653 7.86328,-18.68164 -2.56986,-1.62718 -6.87402,-1.52519 -5.8457,0.13867 1.35378,2.19046 -1.9712,10.45781 -5.08203,12.63672 -4.01559,2.81262 -10.63113,2.49298 -14.30274,-0.6914 -3.84235,-3.33244 -1.95346,-6.4615 2.4707,-4.09375 4.11827,2.20402 6.32687,1.76921 7.83594,-1.54297 1.48501,-3.25941 0.0736,-8.86417 -2.67187,-10.60938 -0.88015,-0.55947 -4.16598,-1.02588 -7.30078,-1.03711 z"
       id="path3080" />
    <path
       style="fill:#ffff00;stroke-width:1.33333"
       d="m 390.83919,258.76788 c -0.45169,0.0386 -0.90792,0.19634 -1.36133,0.47656 -0.82821,0.51186 -0.57064,2.59985 0.69336,5.625 2.39353,5.72856 0.8318,10.95721 -4.53125,15.17579 -3.81631,3.00191 -6.74993,3.27409 -11.57812,1.07421 -5.07629,-2.3129 -4.49743,-5.6737 0.79492,-4.61523 8.07669,1.61535 10.60122,-5.37109 4.14258,-11.46484 -3.66412,-3.45709 -3.67019,-3.45705 -9.66602,-1.21875 -5.18575,1.93588 -6.05647,2.81091 -6.41211,6.45703 -0.88006,9.02272 7.63199,17.70701 17.36524,17.71679 3.63973,0.004 6.19912,-1.08864 9.64844,-4.11718 5.88549,-5.16753 8.21651,-12.69225 6.00585,-19.39063 -1.26543,-3.8343 -3.14421,-5.8861 -5.10156,-5.71875 z"
       id="path3398" />
  </g>
</svg>
